<svg width="30" height="30" viewBox="0 0 30 30" fill="none" xmlns="http://www.w3.org/2000/svg">
<g id="Social">
<g id="Vector">
<path d="M13.8925 19.5984C12.1483 19.4164 10.5755 18.9869 9.22905 17.9337C9.06197 17.8027 8.88948 17.6764 8.73701 17.5301C8.14766 16.9641 8.08827 16.3158 8.55462 15.6477C8.95358 15.076 9.62329 14.9231 10.3194 15.2514C10.4542 15.315 10.5826 15.3944 10.7056 15.4797C13.2151 17.2039 16.6624 17.2515 19.1812 15.5572C19.4308 15.3659 19.6975 15.2099 20.0067 15.1302C20.6078 14.9759 21.1684 15.1967 21.491 15.7227C21.8596 16.3233 21.8549 16.9096 21.4008 17.376C20.7042 18.0909 19.8665 18.6082 18.9357 18.9692C18.0555 19.3104 17.0915 19.4822 16.1373 19.5963C16.2813 19.753 16.3492 19.83 16.4392 19.9205C17.7348 21.2222 19.0361 22.5185 20.3274 23.8243C20.7674 24.2692 20.8593 24.8208 20.617 25.3383C20.3522 25.9039 19.7593 26.2759 19.1779 26.2361C18.8096 26.2107 18.5223 26.0273 18.2671 25.7702C17.2894 24.7864 16.2933 23.8207 15.3354 22.8183C15.0566 22.5268 14.9226 22.5819 14.6765 22.835C13.6929 23.8476 12.6933 24.8446 11.6878 25.836C11.2363 26.2811 10.699 26.3612 10.1754 26.107C9.61881 25.8372 9.26463 25.269 9.29197 24.698C9.31082 24.3118 9.50075 24.0168 9.76586 23.7521C11.048 22.4719 12.3267 21.1883 13.6058 19.9059C13.6904 19.8206 13.7693 19.7301 13.8925 19.5984Z" fill="#7E7F85"/>
<path d="M14.9551 15.1387C11.8433 15.1281 9.29173 12.5485 9.30988 9.43176C9.32779 6.28066 11.881 3.7413 15.0234 3.75002C18.1722 3.75851 20.6995 6.33439 20.6837 9.51825C20.6677 12.6286 18.0984 15.1496 14.9551 15.1387ZM17.7831 9.4393C17.7777 7.89179 16.5452 6.65982 15.0008 6.65841C13.4434 6.65676 12.1999 7.91112 12.2119 9.47277C12.2234 11.0144 13.4665 12.2376 15.0152 12.232C16.5591 12.2266 17.7883 10.9866 17.7831 9.4393Z" fill="#7E7F85"/>
</g>
</g>
</svg>
